<svg width="14" height="22" viewBox="0 0 14 22" version="1.1" xmlns="http://www.w3.org/2000/svg" xmlns:xlink="http://www.w3.org/1999/xlink">
<title>back</title>
<desc>Created using Figma</desc>
<g id="Canvas" transform="translate(-6845 -239)">
<g id="back">
<use xlink:href="#path0_stroke" transform="translate(6847 241)" fill="#4F4F4F"/>
</g>
</g>
<defs>
<path id="path0_stroke" d="M 11.0034 1.11494C 11.6192 0.560753 11.6691 -0.387682 11.1149 -1.00345C 10.5608 -1.61921 9.61232 -1.66913 8.99655 -1.11494L 11.0034 1.11494ZM 0 9L -1.00345 7.88506C -1.31952 8.16952 -1.5 8.57477 -1.5 9C -1.5 9.42523 -1.31952 9.83048 -1.00345 10.1149L 0 9ZM 8.99655 19.1149C 9.61232 19.6691 10.5608 19.6192 11.1149 19.0034C 11.6691 18.3877 11.6192 17.4392 11.0034 16.8851L 8.99655 19.1149ZM 8.99655 -1.11494L -1.00345 7.88506L 1.00345 10.1149L 11.0034 1.11494L 8.99655 -1.11494ZM -1.00345 10.1149L 8.99655 19.1149L 11.0034 16.8851L 1.00345 7.88506L -1.00345 10.1149Z"/>
</defs>
</svg>
